# xmcd
#
# Track frame offsets: 
#        150
#        22957
#        36442
#        58925
#        75937
#        91195
#        110795
#        131947
#        149027
#        170305
#        202745
#        221005
#        237322
#
# Disc length: 3441 seconds
#
# Revision: 0
# Processed by: cddbd v1.5.2PL0 Copyright (c) Steve Scherf et al.
# Submitted via: ExactAudioCopy v1.0b3
#
DISCID=b90d6f0d
DTITLE=Nocturnal Rites - Tales Of Mystery And Imagination
DYEAR=1997
DGENRE=Metal
TTITLE0=The Dark Secret
TTITLE1=Lost In Time
TTITLE2=Test Of Time
TTITLE3=Change The World
TTITLE4=End Of The World
TTITLE5=The Vision
TTITLE6=Warriors Return
TTITLE7=Pentagram
TTITLE8=Eye Of The Demon
TTITLE9=Ring Of Steel
TTITLE10=The Curse
TTITLE11=Burn In Hell
TTITLE12=Living For Today (Demo)
EXTD=
EXTT0=
EXTT1=
EXTT2=
EXTT3=
EXTT4=
EXTT5=
EXTT6=
EXTT7=
EXTT8=
EXTT9=
EXTT10=
EXTT11=
EXTT12=
PLAYORDER=
